<?xml version="1.0" encoding="utf-8"?>
<!-- Generator: Adobe Illustrator 23.0.1, SVG Export Plug-In . SVG Version: 6.00 Build 0)  -->
<svg version="1.1" id="Layer_1" xmlns="http://www.w3.org/2000/svg" xmlns:xlink="http://www.w3.org/1999/xlink" x="0px" y="0px"
	 viewBox="0 0 54.5 60.5" style="enable-background:new 0 0 54.5 60.5;" xml:space="preserve">
<style type="text/css">
	.st0{fill:#DBDFFF;}
	.st1{fill:#363398;}
</style>
<g id="Group_573" transform="translate(-162.186 -143)">
	<g id="Group_572" transform="translate(162.186 143)">
		<g id="Group_572-2">
			<circle id="Ellipse_108" class="st0" cx="27.3" cy="32.9" r="23.5"/>
			<path id="Path_1057" class="st1" d="M0,33.3c0,15.1,12.2,27.3,27.3,27.3c15.1,0,27.3-12.2,27.3-27.3c0-7.2-2.9-14.1-7.9-19.2
				l2.1-2.1l1,1c0.8,0.8,2.2,0.8,3,0c0.8-0.8,0.8-2.2,0-3l-5-5c-0.8-0.8-2.2-0.8-3,0s-0.8,2.2,0,3l1,1l-2.3,2.4
				c-4.1-3-8.9-4.8-13.9-5.2V4.3h4.8c1.2,0,2.1-0.9,2.1-2.1c0,0,0,0,0,0C36.4,1,35.4,0,34.3,0c0,0,0,0,0,0H20.1
				C18.9,0,18,0.9,18,2.1c0,0,0,0,0,0c0,1.2,0.9,2.1,2.1,2.1c0,0,0,0,0,0h5.1v1.8C11,7.2,0,19,0,33.3z M27.3,10.3
				c12.7,0,23,10.3,23,23s-10.3,23-23,23s-23-10.3-23-23c0,0,0,0,0,0C4.3,20.6,14.6,10.3,27.3,10.3z"/>
		</g>
	</g>
</g>
</svg>
