<svg id="Group_519" data-name="Group 519" xmlns="http://www.w3.org/2000/svg" width="87.665" height="137.849" viewBox="0 0 87.665 137.849">
  <path id="Path_1016" data-name="Path 1016" d="M76.672,6.4H18.229A12.234,12.234,0,0,0,6,18.629V127.256a12.234,12.234,0,0,0,12.229,12.229H76.672A12.234,12.234,0,0,0,88.9,127.256V18.47A12.3,12.3,0,0,0,76.672,6.4Z" transform="translate(-3.618 -3.859)" fill="#4957d6"/>
  <path id="Path_1017" data-name="Path 1017" d="M16.564,126.856V18.229A12.234,12.234,0,0,1,28.793,6H18.629A12.234,12.234,0,0,0,6.4,18.229V126.856a12.234,12.234,0,0,0,12.229,12.229H28.793A12.336,12.336,0,0,1,16.564,126.856Z" transform="translate(-3.859 -3.618)" fill="#363398"/>
  <rect id="Rectangle_1509" data-name="Rectangle 1509" width="77.818" height="82.9" transform="translate(4.923 24.298)" fill="#dbdfff"/>
  <path id="Path_1022" data-name="Path 1022" d="M0,0H10.164V82.9H0Z" transform="translate(4.923 24.298)" fill="#c3c9ff"/>
  <circle id="Ellipse_103" data-name="Ellipse 103" cx="18.263" cy="18.263" r="18.263" transform="translate(25.569 47.644)" fill="#50d2c2"/>
  <path id="Path_1018" data-name="Path 1018" d="M70.035,138.263a18.263,18.263,0,0,1,15.246-17.946A17.59,17.59,0,0,0,82.263,120a18.263,18.263,0,1,0,0,36.527,19.456,19.456,0,0,0,3.017-.318A18.263,18.263,0,0,1,70.035,138.263Z" transform="translate(-38.59 -72.356)" fill="#00af99"/>
  <g id="Group_517" data-name="Group 517">
    <path id="Path_1019" data-name="Path 1019" d="M73.054,0H14.611A14.572,14.572,0,0,0,0,14.611V123.239a14.572,14.572,0,0,0,14.611,14.611H73.054a14.572,14.572,0,0,0,14.611-14.611V14.611A14.674,14.674,0,0,0,73.054,0ZM4.923,24.3H82.741v82.9H4.923S4.923,24.3,4.923,24.3ZM14.611,4.923H73.054a9.625,9.625,0,0,1,9.688,9.688v4.923H4.923V14.611A9.625,9.625,0,0,1,14.611,4.923Zm58.443,128H14.611a9.625,9.625,0,0,1-9.688-9.688V112.122H82.741v11.117A9.625,9.625,0,0,1,73.054,132.926Z" fill="#363398"/>
    <circle id="Ellipse_104" data-name="Ellipse 104" cx="7.941" cy="7.941" r="7.941" transform="translate(35.892 113.869)" fill="#363398"/>
    <path id="Path_1020" data-name="Path 1020" d="M79.046,114a20.646,20.646,0,1,0,20.646,20.646A20.6,20.6,0,0,0,79.046,114Zm0,36.527A15.722,15.722,0,1,1,94.768,134.8,15.758,15.758,0,0,1,79.046,150.527Z" transform="translate(-35.213 -68.738)" fill="#231f20"/>
    <path id="Path_1021" data-name="Path 1021" d="M97.992,146.628l-10.64,9.211-3.494-4.923a2.382,2.382,0,0,0-3.812,2.859l5.082,7.147a2.42,2.42,0,0,0,1.747.953h.318a2.039,2.039,0,0,0,1.588-.635l12.546-10.958a2.473,2.473,0,0,0-3.335-3.653Z" transform="translate(-47.966 -88.026)" fill="#231f20"/>
  </g>
</svg>
