<svg xmlns="http://www.w3.org/2000/svg" viewBox="0 0 94.22 97.81"><defs><style>.cls-1{opacity:0.7;}.cls-2{fill:#333e48;}.cls-3{fill:none;}</style></defs><g id="Layer_2" data-name="Layer 2"><g id="Layer_1-2" data-name="Layer 1"><g class="cls-1"><polyline class="cls-2" points="53.88 20.92 53.18 23.79 40.42 20.68 41.12 17.81"/><path class="cls-2" d="M60.1,78.38h-3V72.19H42.54l0-.07H24.25L24,69.65a11.78,11.78,0,0,1,2.54-7.52,9,9,0,0,1,6.82-3.75l14.11,0,0-.1h.83l8.81-5.19V30.51L46.59,13.72l-10.2,0a8.28,8.28,0,0,1-6.33-2.59c-3.38-3.65-3-9.73-3-9.79L27.21,0H52.89L75,24.63c1,.63,2.47,3.53,6.75,22.29,2,8.86,4.59,21.06,4.59,21.66V77H83.41V68.68c-.55-3.53-7.85-37.6-10-41.49h0L51.57,3H30.06c.1,1.65.52,4.46,2.19,6.22a5.34,5.34,0,0,0,4.14,1.63l11.83,0L60.1,29.66V54.81L49.7,60.92l-.15.44-16.14,0a6.17,6.17,0,0,0-4.54,2.62A9,9,0,0,0,27,69.17H46.69l0,.08H60.1Z"/><polygon class="cls-2" points="94.22 83.07 91.28 83.07 91.28 78.9 52.11 78.9 52.11 83.07 49.17 83.07 49.17 75.95 94.22 75.95 94.22 83.07"/><polyline class="cls-3" points="92.75 97.81 92.75 83.33 45.27 83.33 45.27 97.81"/><polygon class="cls-2" points="94.22 97.81 91.28 97.81 91.28 84.8 46.75 84.8 46.75 97.81 43.8 97.81 43.8 81.85 94.22 81.85 94.22 97.81"/><path class="cls-2" d="M30.51,62.11h-9l-.62-2.88a18.79,18.79,0,0,1-1.83-.45L17,61.05,9.2,56.54l.91-2.82c-.45-.42-.89-.85-1.3-1.31l-3,1-4.5-7.8,2.39-2.16c-.15-.51-.28-1-.4-1.55L0,41.15v-9l3.51-.75c.1-.39.22-.8.36-1.21L1.06,27.63l4.51-7.8,3.82,1.23.63-.62-1.28-4L16.54,12l2.9,3.21L20,15,21,10.63h9L30.92,15c.15,0,.31.07.46.12l3.1-3.43,7.8,4.5-1.36,4.23.36.35,4.37-1.41,4.51,7.81L47,30c.07.23.15.46.21.69l4.24.91v9l-3.76.81c-.07.36-.14.71-.23,1l2.93,2.64-4.51,7.81-3.28-1.06c-.31.36-.63.71-1,1l1.08,3.37-7.8,4.51-2.08-2.31q-.84.29-1.68.51Zm-6.63-2.94h4.25l.57-2.64.93-.2a19.63,19.63,0,0,0,3.1-.95l1-.38,1.85,2,3.68-2.13-.92-2.85.68-.64a21.63,21.63,0,0,0,2-2.19l.63-.81,2.94,1,2.13-3.68-2.51-2.27.26-.88A19.79,19.79,0,0,0,45,40l.15-1,3.41-.73V34l-3.7-.79-.22-.89a19,19,0,0,0-.68-2.22l-.36-.94,2.83-2.55L44.29,22.9l-3.85,1.25-.64-.67A17.28,17.28,0,0,0,38.27,22l-.75-.64,1.23-3.81-3.68-2.12-2.75,3-.9-.28a20.31,20.31,0,0,0-2-.52l-.94-.19-.84-3.91H23.35l-.84,3.91-.94.19a17.88,17.88,0,0,0-2.14.57l-.91.29L16,15.7l-3.68,2.13,1.16,3.55-.75.64a18.83,18.83,0,0,0-1.77,1.72l-.64.7L6.93,23.36,4.8,27,7.3,29.3,7,30.23a18.26,18.26,0,0,0-.79,2.7l-.2.93-3,.65v4.25l2.92.63.17,1a18.92,18.92,0,0,0,.76,3l.31.91-2,1.85,2.12,3.68L9.76,49l.64.76a18.71,18.71,0,0,0,2.36,2.35l.75.64-.78,2.42,3.68,2.13,1.75-1.93.92.32a19.43,19.43,0,0,0,3.26.81l1,.15Zm1.6-11.57A10.57,10.57,0,1,1,36,37,10.58,10.58,0,0,1,25.48,47.6Zm0-18.18A7.62,7.62,0,1,0,33.1,37,7.62,7.62,0,0,0,25.48,29.42Z"/></g></g></g></svg>