<svg xmlns="http://www.w3.org/2000/svg" viewBox="0 0 103.32 100.2"><defs><style>.cls-1{opacity:0.7;}.cls-2,.cls-3{fill:none;stroke:#009bde;}.cls-2{stroke-miterlimit:10;}.cls-3{stroke-width:3px;}</style></defs><g id="Layer_2" data-name="Layer 2"><g id="Layer_2-2" data-name="Layer 2"><g class="cls-1"><path class="cls-2" d="M95.9,64.3A20.14,20.14,0,0,0,67.25,92.62V86.81a5.51,5.51,0,0,1,3.54-4.9,36.83,36.83,0,0,1,21,0,5.49,5.49,0,0,1,3.55,4.9v6.52c.21-.19.43-.37.64-.58a20.1,20.1,0,0,0,0-28.45ZM81.27,80.14A7.13,7.13,0,1,1,88.4,73,7.12,7.12,0,0,1,81.27,80.14Z"/><path class="cls-3" d="M91.75,81.91a36.83,36.83,0,0,0-21,0,5.51,5.51,0,0,0-3.54,4.9v5.81a20.27,20.27,0,0,0,6.44,4.44v0a20,20,0,0,0,15.17.29v0a20.14,20.14,0,0,0,6.44-4V86.81A5.49,5.49,0,0,0,91.75,81.91Z"/><path class="cls-2" d="M81.27,65.89A7.13,7.13,0,1,0,88.4,73,7.13,7.13,0,0,0,81.27,65.89Z"/><path class="cls-3" d="M95.94,92.75a20.1,20.1,0,1,1,5.88-14.21A20,20,0,0,1,95.94,92.75Z"/><path class="cls-3" d="M88.4,73a7.13,7.13,0,1,1-7.13-7.13A7.13,7.13,0,0,1,88.4,73Z"/><path class="cls-2" d="M35.9,64.3A20.14,20.14,0,0,0,7.25,92.62V86.81a5.51,5.51,0,0,1,3.54-4.9,36.83,36.83,0,0,1,21,0,5.49,5.49,0,0,1,3.55,4.9v6.52c.21-.19.43-.37.64-.58a20.1,20.1,0,0,0,0-28.45ZM21.27,80.14A7.13,7.13,0,1,1,28.4,73,7.12,7.12,0,0,1,21.27,80.14Z"/><path class="cls-3" d="M31.75,81.91a36.83,36.83,0,0,0-21,0,5.51,5.51,0,0,0-3.54,4.9v5.81a20.27,20.27,0,0,0,6.44,4.44v0a20,20,0,0,0,15.17.29v0a20.14,20.14,0,0,0,6.44-4V86.81A5.49,5.49,0,0,0,31.75,81.91Z"/><path class="cls-2" d="M21.27,65.89A7.13,7.13,0,1,0,28.4,73,7.13,7.13,0,0,0,21.27,65.89Z"/><path class="cls-3" d="M35.94,92.75a20.1,20.1,0,1,1,5.88-14.21A20,20,0,0,1,35.94,92.75Z"/><path class="cls-3" d="M28.4,73a7.13,7.13,0,1,1-7.13-7.13A7.13,7.13,0,0,1,28.4,73Z"/><line class="cls-3" x1="50.77" y1="40.68" x2="50.77" y2="58.14"/><line class="cls-3" x1="36.25" y1="65.36" x2="50.31" y2="57.25"/><line class="cls-3" x1="65.3" y1="65.36" x2="51.24" y2="57.25"/><path class="cls-2" d="M65.48,7.41A20.14,20.14,0,0,0,36.83,35.73v-5.8A5.48,5.48,0,0,1,40.38,25a36.62,36.62,0,0,1,20.95,0,5.48,5.48,0,0,1,3.55,4.9v6.52c.21-.2.43-.38.64-.59a20.1,20.1,0,0,0,0-28.45ZM50.85,23.25A7.13,7.13,0,1,1,58,16.13,7.12,7.12,0,0,1,50.85,23.25Z"/><path class="cls-3" d="M61.33,25a36.62,36.62,0,0,0-20.95,0,5.48,5.48,0,0,0-3.55,4.9v5.8a20.27,20.27,0,0,0,6.44,4.44v0a20.1,20.1,0,0,0,15.17.3v0a20.31,20.31,0,0,0,6.44-4V29.93A5.48,5.48,0,0,0,61.33,25Z"/><path class="cls-2" d="M50.85,9A7.13,7.13,0,1,0,58,16.13,7.13,7.13,0,0,0,50.85,9Z"/><path class="cls-3" d="M65.52,35.86A20.14,20.14,0,1,1,37,7.44,20.14,20.14,0,1,1,65.52,35.86Z"/><path class="cls-3" d="M58,16.13A7.13,7.13,0,1,1,50.85,9,7.13,7.13,0,0,1,58,16.13Z"/></g></g></g></svg>