<svg xmlns="http://www.w3.org/2000/svg" viewBox="0 0 95.04 73.15"><defs><style>.cls-1{fill:#ffa400;}.cls-2{fill:none;}</style></defs><title>Case</title><g id="Layer_2" data-name="Layer 2"><g id="Layer_2-2" data-name="Layer 2"><path class="cls-1" d="M5.9,73.15A5.91,5.91,0,0,1,0,67.24V15.84C0,14,.86,11,6.64,11l83.23-.1c2.49,0,5.17,1.52,5.17,4.85v51.4a5.9,5.9,0,0,1-5.9,5.9Zm84-59.51-83.23.09c-3.91,0-3.91,1.48-3.91,2.11v51.4A3.18,3.18,0,0,0,5.9,70.41l83.24-.09a3.17,3.17,0,0,0,3.17-3.17V15.75A2.16,2.16,0,0,0,89.87,13.64Z"/><rect class="cls-2" x="19.69" y="13.28" width="7.33" height="57.57"/><rect class="cls-2" x="67.7" y="13.28" width="7.33" height="57.57"/><path class="cls-1" d="M17.45,43.78H12.77C5,43.78,0,37.94,0,28.9V16.81H2.73V28.9c0,5.87,2.64,12.15,10,12.15h4.68Z"/><path class="cls-1" d="M82.27,43.78H77.55V41.05h4.72c7.4,0,10-6.32,10-12.24V16.72H95V28.81C95,37.76,89.91,43.78,82.27,43.78Z"/><path class="cls-1" d="M62.79,13.69H55.66V7.13H39.38v6.56H32.25V5.17C32.25.9,34.39,0,36.18,0H57.62a5.18,5.18,0,0,1,5.17,5.17ZM58.39,11h1.67V5.17a2.44,2.44,0,0,0-2.44-2.44H36.18c-.53,0-1.19,0-1.19,2.44V11h1.66V4.4H58.39Z"/><rect class="cls-1" x="16.49" y="41.05" width="18.52" height="2.73"/><rect class="cls-1" x="59.33" y="41.05" width="18.31" height="2.73"/><path class="cls-1" d="M53.4,55.24H41.64V47.9H34.3V36.14h7.34V28.8H53.4v7.34h7.34V47.9H53.4Zm-9-2.74h6.29V45.17H58v-6.3H50.67V31.54H44.38v7.33H37v6.3h7.34Z"/></g></g></svg>