<svg xmlns="http://www.w3.org/2000/svg" viewBox="0 0 94.57 98.07"><defs><style>.cls-1{opacity:0.7;}.cls-2{fill:#8b1b9c;}.cls-3{fill:none;}</style></defs><g id="Layer_2" data-name="Layer 2"><g id="Layer_2-2" data-name="Layer 2"><g class="cls-1"><path class="cls-2" d="M61.06,15.44l-7.44-1.31V14a9,9,0,0,1-5.31-8,5.94,5.94,0,0,1,2.21-4.79,6,6,0,0,1,5.18-1A9,9,0,0,1,62.15,7h.19Zm-5.27-3.88,3.52.82,0-3.68V8.48A5.93,5.93,0,0,0,55,3.11a3.07,3.07,0,0,0-2.64.46A3,3,0,0,0,51.31,6h0a5.89,5.89,0,0,0,4.2,5.45Z"/><path class="cls-2" d="M60.06,15.44,59.2,7h.2A9,9,0,0,1,65.85.19a6,6,0,0,1,5.18,1A6,6,0,0,1,73.24,6h0a9,9,0,0,1-5.32,8v.13Zm2.16-6.63,0,3.57,3.8-.9A5.91,5.91,0,0,0,70.24,6a3,3,0,0,0-1.07-2.46,3.07,3.07,0,0,0-2.64-.46,5.91,5.91,0,0,0-4.31,5.37Z"/><path class="cls-2" d="M90.59,26.2H31V13H90.59ZM34,23.2H87.59V16H34Z"/><polygon class="cls-2" points="35.55 59.72 32.55 59.72 32.55 23.2 89.02 23.2 89.02 55.16 86.02 55.16 86.02 26.2 35.55 26.2 35.55 59.72"/><path class="cls-2" d="M66.87,26.2H54.71V13H66.87Zm-9.16-3h6.16V16H57.71Z"/><polygon class="cls-2" points="66.61 64.83 63.62 64.83 63.62 26.2 57.96 26.2 57.96 58.22 54.96 58.22 54.96 23.2 66.61 23.2 66.61 64.83"/><rect class="cls-2" x="74.49" y="28.25" width="9.64" height="3"/><rect class="cls-2" x="79.43" y="33.19" width="4.7" height="3"/><path class="cls-2" d="M36,87.56H23.34v-3H35.45L69.58,71.89,90.1,57.78l-.52-.52c-2.08-2.08-5.77-1.35-8.19.39l-.13.08L62.57,68.53H38.33l.27-3,1.38,0,13.76,0c2.49-.07,4.48-2.91,4.69-5.44H35.87l-9.5,8.34H23.93v-3h1.31l9.5-8.34H61.23l.21,2.34a9.69,9.69,0,0,1-2.13,6.13h2.45l4.83-2.81L79.7,55.17c3.51-2.49,8.73-3.3,12,0l1.59,1.59a2.85,2.85,0,0,1,.23.26l1,1.26-1.3,1L71,74.58Z"/><polyline class="cls-3" points="0 61.65 18.26 61.65 18.26 96.57 0 96.57"/><polygon class="cls-2" points="25.1 94.13 17.34 94.13 17.34 91.13 22.1 91.13 22.1 63.15 7.34 63.15 7.34 60.15 25.1 60.15 25.1 94.13"/><polygon class="cls-2" points="19.76 98.07 0 98.07 0 95.07 16.76 95.07 16.76 63.15 0 63.15 0 60.15 19.76 60.15 19.76 98.07"/></g></g></g></svg>