<svg xmlns="http://www.w3.org/2000/svg" viewBox="0 0 70.54 89.76"><defs><style>.cls-1{opacity:0.7;}.cls-2,.cls-3,.cls-4{fill:none;}.cls-2{stroke:#484f59;}.cls-2,.cls-3{stroke-miterlimit:10;stroke-width:3px;}.cls-3{stroke:#00af43;}.cls-5{fill:#fff;}</style></defs><g id="Layer_2" data-name="Layer 2"><g id="Layer_2-2" data-name="Layer 2"><g class="cls-1"><path class="cls-2" d="M22.64,74.09a12.13,12.13,0,0,1-4.89-9.73V36.78"/><path class="cls-3" d="M54.52,36.78l0,14.91c0,1.06,6.2-9.39,10.19-14.09a4.63,4.63,0,0,1,3.85-1.28s-4,13.6-5.13,16.65c-1.29,3.56-1.24,6.61-3.65,9.53L50.92,73.18"/><polyline class="cls-3" points="17.29 81.31 17.29 73.71 58.13 73.71 58.13 81.31"/><polyline class="cls-4" points="12.92 89.6 12.92 80.72 58.96 80.72 58.96 89.6"/><polyline class="cls-3" points="12.92 89.6 12.92 80.72 58.96 80.72 58.96 89.6"/><path class="cls-3" d="M17.75,36.94V20.52A4.53,4.53,0,0,1,22.29,16h0a4.53,4.53,0,0,1,4.53,4.53V36.94"/><path class="cls-3" d="M27,36.94V10.68a4.53,4.53,0,0,1,4.53-4.54h0a4.54,4.54,0,0,1,4.54,4.54V36.94"/><path class="cls-3" d="M36.2,36.94V6A4.53,4.53,0,0,1,40.74,1.5h0A4.53,4.53,0,0,1,45.27,6V36.94"/><path class="cls-3" d="M45.43,36.94V13.88A4.53,4.53,0,0,1,50,9.35h0a4.53,4.53,0,0,1,4.54,4.53V36.94"/><path class="cls-5" d="M4,55.06S4,37.13,6.57,38.41s5.12,3.84,5.12,5.12V33.29L13,32h2.56l1.28,2.56,1.29-3.85,2.56-1.28h2.56V32l1.28,2.56h2.56l2.56,1.28V64L39.87,52.5,34.75,67.87l-6.41,9,1.28,2.56h2.56l1.29,3.85v6.4H.16l1.28-5.12,3.85-1.28L4,74.27Z"/><path class="cls-3" d="M8.21,79.08a8.34,8.34,0,0,1-3.37-6.71v-19"/><path class="cls-3" d="M30.18,53.36V63.64c0,.72,4.28-6.48,7-9.72A3.2,3.2,0,0,1,39.87,53s-2.77,9.37-3.53,11.48c-.89,2.45-.86,4.56-2.52,6.56L27.7,78.45"/><polyline class="cls-3" points="4.51 84.05 4.51 78.82 32.67 78.82 32.67 84.05"/><polyline class="cls-4" points="1.5 89.77 1.5 83.64 33.24 83.64 33.24 89.77"/><polyline class="cls-3" points="1.5 89.77 1.5 83.64 33.24 83.64 33.24 89.77"/><path class="cls-3" d="M4.84,53.47V42.15A3.12,3.12,0,0,1,8,39H8a3.13,3.13,0,0,1,3.13,3.13V53.47"/><path class="cls-3" d="M11.19,53.47V35.36a3.13,3.13,0,0,1,3.13-3.12h0a3.13,3.13,0,0,1,3.13,3.12V53.47"/><path class="cls-3" d="M17.55,53.47V32.16A3.13,3.13,0,0,1,20.68,29h0a3.12,3.12,0,0,1,3.12,3.12V53.47"/><path class="cls-3" d="M23.91,53.47V37.57A3.13,3.13,0,0,1,27,34.44h0a3.13,3.13,0,0,1,3.12,3.13v15.9"/></g></g></g></svg>