<svg xmlns="http://www.w3.org/2000/svg" viewBox="0 0 88.73 100.49"><defs><style>.cls-1{opacity:0.7;}.cls-2{fill:#f36e21;}.cls-3{fill:#484f59;}.cls-4{fill:none;}</style></defs><g id="Layer_2" data-name="Layer 2"><g id="Layer_2-2" data-name="Layer 2"><g class="cls-1"><path class="cls-2" d="M61.84,53.8A26.88,26.88,0,0,1,37.29,15.93h0A26.88,26.88,0,1,1,86.36,37.87,27,27,0,0,1,61.84,53.8ZM39.78,17A24.15,24.15,0,1,0,53.21,4.33,24,24,0,0,0,39.78,17ZM61.84,49a22.14,22.14,0,1,1,7.88-1.46A22,22,0,0,1,61.84,49Zm0-41.52a19.39,19.39,0,0,0-8,37.08h0a19.39,19.39,0,1,0,8-37.08Z"/><path class="cls-2" d="M53.88,56.11,51.38,55l1.24-2.89c-.62-.23-1.23-.47-1.81-.74s-1.11-.52-1.66-.81c-.41.94-.82,1.88-1.22,2.83l-2.5-1.08q.9-2.12,1.82-4.24a1.36,1.36,0,0,1,.84-.75,1.37,1.37,0,0,1,1.12.13,25.52,25.52,0,0,0,2.71,1.44A24.85,24.85,0,0,0,54.86,50a1.41,1.41,0,0,1,.84.73,1.34,1.34,0,0,1,0,1.11Z"/><rect class="cls-2" x="32.65" y="93.26" width="9.25" height="2.72" transform="translate(-64.32 90.01) rotate(-65.9)"/><rect class="cls-3" x="24.36" y="90.91" width="5.09" height="2.72" transform="translate(-68.31 79.16) rotate(-65.9)"/><polygon class="cls-2" points="54.49 59.47 52 58.37 52.72 56.72 45.65 53.56 43.35 58.3 40.9 57.11 44.35 50 56.31 55.34 54.49 59.47"/><path class="cls-2" d="M32.85,100.49a8.75,8.75,0,0,1-8.17-5.62,1.34,1.34,0,0,1,0-1l1-2.29a1.37,1.37,0,0,1,1.8-.68l9.52,4.25a1.37,1.37,0,0,1,.69,1.8l-1,2.29a1.36,1.36,0,0,1-.76.71A8.69,8.69,0,0,1,32.85,100.49ZM27.44,94.4a6,6,0,0,0,7,3.14l.23-.5-7-3.14Z"/><rect class="cls-2" x="64.45" y="24.06" width="18.26" height="2.72" transform="translate(-4.23 27.92) rotate(-20.9)"/><rect class="cls-2" x="48.85" y="21.48" width="32.15" height="2.72" transform="translate(-3.88 24.67) rotate(-20.9)"/><path class="cls-2" d="M20.32,67.69H18.61V66.17L17.93,66a11.71,11.71,0,0,1,2.88-5.28l.1-.09L34.25,49.17h13v.06c.76.06.86.2,1.07.46l-.74,2.64-6.1-.44H35.26L22.74,62.65a9.1,9.1,0,0,0-2.17,4Z"/><path class="cls-2" d="M29.29,91.09a11.63,11.63,0,0,1-8.94-4.16h-.83V84.21H21l1.09.54a8.91,8.91,0,0,0,7.19,3.62h18l3.9-.19a2.52,2.52,0,0,0,2.55-2.49c0-2.49-1.07-2.49-1.52-2.49V80.48h1a2.49,2.49,0,0,0,0-5V72.79h1.92a2.49,2.49,0,0,0,0-5H52.89V65.1a2.73,2.73,0,0,0,2.34-2.66,2.62,2.62,0,0,0-2.62-2.61H36.17V57.1H52.61A5.32,5.32,0,0,1,57,65.47a5.21,5.21,0,0,1,.37,9.5,5.21,5.21,0,0,1-1.64,7.54,6.71,6.71,0,0,1,.69,3.18A5.21,5.21,0,0,1,51.2,90.9l-3.9.19Z"/><polygon class="cls-2" points="20.06 93.41 13.79 93.41 13.79 90.68 17.34 90.68 17.34 65.28 1.22 65.28 1.22 62.56 20.06 62.56 20.06 93.41"/><polyline class="cls-4" points="0 63.92 13.85 63.92 13.85 95.63 0 95.63"/><polygon class="cls-2" points="15.21 96.99 0 96.99 0 94.27 12.49 94.27 12.49 65.28 0 65.28 0 62.56 15.21 62.56 15.21 96.99"/></g></g></g></svg>