<svg xmlns="http://www.w3.org/2000/svg" viewBox="0 0 116.13 68.07"><defs><style>.cls-1{opacity:0.7;}.cls-2,.cls-3{fill:none;stroke:#15d0cb;stroke-miterlimit:10;stroke-width:3px;}.cls-2{fill-rule:evenodd;}</style></defs><g id="Layer_2" data-name="Layer 2"><g id="Layer_1-2" data-name="Layer 1"><g class="cls-1"><path class="cls-2" d="M45.64,45H67.88A11.53,11.53,0,0,1,79,45h8.27V9.1A3.05,3.05,0,0,0,86.43,7h0a3,3,0,0,0-2.13-.89H48.86A3.21,3.21,0,0,0,46.59,7h0a3.21,3.21,0,0,0-.94,2.27V45ZM91.89,9.08h8.24v4.58H91.89v30h1.77v14.5H84.55a11.52,11.52,0,0,1-22.18,0H32.47a11.51,11.51,0,0,1-22.18,0H1.5V44.33H4.18A24.76,24.76,0,0,1,7,36a17.93,17.93,0,0,1,8-7.25l11.25-16.4.69-1H41.06v-2a7.77,7.77,0,0,1,2.29-5.5h0a7.81,7.81,0,0,1,5.5-2.29H60.38l27.18.75a7.55,7.55,0,0,1,2.09,1.48h0a7.55,7.55,0,0,1,2.23,5.34ZM76.74,51.79a4.64,4.64,0,1,0,1.35,3.27,4.63,4.63,0,0,0-1.35-3.27Zm-52.09,0A4.61,4.61,0,1,0,26,55.06a4.6,4.6,0,0,0-1.36-3.27ZM20.74,28.54h14.5V15.92H29.4Z"/><line class="cls-3" x1="97.56" y1="25.04" x2="116.13" y2="25.04"/><line class="cls-3" x1="97.56" y1="29.98" x2="106.62" y2="29.98"/></g></g></g></svg>