<svg xmlns="http://www.w3.org/2000/svg" viewBox="0 0 101.94 90.28"><defs><style>.cls-1{opacity:0.7;}.cls-2{fill:none;stroke:#001789;stroke-miterlimit:10;stroke-width:3px;}</style></defs><g id="Layer_2" data-name="Layer 2"><g id="Layer_1-2" data-name="Layer 1"><g class="cls-1"><path class="cls-2" d="M45.76,4.51,2.32,79.75a6,6,0,0,0,5.21,9H94.41a6,6,0,0,0,5.21-9L56.19,4.51A6,6,0,0,0,45.76,4.51Z"/><polygon class="cls-2" points="50.84 14.76 13.34 79.71 88.34 79.71 50.84 14.76"/><path class="cls-2" d="M50.3,64.9A3.94,3.94,0,0,1,54.38,69a3.84,3.84,0,0,1-4.08,4.15A3.92,3.92,0,0,1,46.22,69,4,4,0,0,1,50.3,64.9ZM47.09,41.23V35.61h6.55V41c0,5.69-.73,16.92-.93,18.86H48C47.83,58,47.09,46.85,47.09,41.23Z"/></g></g></g></svg>